<svg width="200" height="200" viewBox="0 0 200 200" fill="none" xmlns="http://www.w3.org/2000/svg">
  <rect width="200" height="200" rx="50" fill="#6200EE"/>
  <path d="M100 150C122.091 150 140 132.091 140 110C140 87.909 122.091 70 100 70C77.909 70 60 87.909 60 110C60 132.091 77.909 150 100 150Z" fill="black"/>
  <path d="M140 90C151.046 90 160 81.0457 160 70C160 58.9543 151.046 50 140 50C128.954 50 120 58.9543 120 70C120 81.0457 128.954 90 140 90Z" fill="black"/>
  <path d="M60 90C71.0457 90 80 81.0457 80 70C80 58.9543 71.0457 50 60 50C48.9543 50 40 58.9543 40 70C40 81.0457 48.9543 90 60 90Z" fill="black"/>
  <path d="M85 100C90.5228 100 95 95.5228 95 90C95 84.4772 90.5228 80 85 80C79.4772 80 75 84.4772 75 90C75 95.5228 79.4772 100 85 100Z" fill="white"/>
  <path d="M115 100C120.523 100 125 95.5228 125 90C125 84.4772 120.523 80 115 80C109.477 80 105 84.4772 105 90C105 95.5228 109.477 100 115 100Z" fill="white"/>
  <path d="M100 145C110 145 120 135 120 125C120 115 110 115 100 115C90 115 80 115 80 125C80 135 90 145 100 145Z" fill="white"/>
  <path d="M85 95C87.7614 95 90 92.7614 90 90C90 87.2386 87.7614 85 85 85C82.2386 85 80 87.2386 80 90C80 92.7614 82.2386 95 85 95Z" fill="black"/>
  <path d="M115 95C117.761 95 120 92.7614 120 90C120 87.2386 117.761 85 115 85C112.239 85 110 87.2386 110 90C110 92.7614 112.239 95 115 95Z" fill="black"/>
  <path d="M100 140C105 140 110 138 110 130C110 122 105 120 100 120C95 120 90 122 90 130C90 138 95 140 100 140Z" fill="#FF69B4"/>
  <path d="M100 160C110 160 135 150 140 125C145 100 145 80 150 60C155 40 160 35 160 35" stroke="black" stroke-width="5"/>
  <path d="M100 160C90 160 65 150 60 125C55 100 55 80 50 60C45 40 40 35 40 35" stroke="black" stroke-width="5"/>
</svg>