<svg width="360" height="640" xmlns="http://www.w3.org/2000/svg">
    <rect width="360" height="640" fill="#f8f9fa"/>
    <rect x="0" y="0" width="360" height="70" fill="#0066cc"/>
    <text x="20" y="40" font-family="Arial" font-size="24" fill="white">Task Cat</text>
    <text x="20" y="60" font-family="Arial" font-size="14" fill="rgba(255,255,255,0.8)">Stay purr-fectly organized!</text>
    
    <!-- Progress Card -->
    <rect x="20" y="90" width="320" height="120" rx="16" ry="16" fill="white" stroke="#eee" stroke-width="1"/>
    <text x="40" y="120" font-family="Arial" font-size="16" font-weight="bold" fill="#333">Your Progress</text>
    <text x="280" y="120" font-family="Arial" font-size="16" font-weight="bold" fill="#0066cc">75%</text>
    <rect x="40" y="140" width="240" height="16" rx="8" ry="8" fill="#eee"/>
    <rect x="40" y="140" width="180" height="16" rx="8" ry="8" fill="#0066cc"/>
    <text x="160" y="180" font-family="Arial" font-size="14" fill="#666" text-anchor="middle">Almost there! Keep going!</text>
    
    <!-- Stats Card -->
    <rect x="20" y="230" width="320" height="100" rx="16" ry="16" fill="white" stroke="#eee" stroke-width="1"/>
    <rect x="40" y="250" width="80" height="60" rx="8" ry="8" fill="rgba(255,255,255,0.5)"/>
    <text x="80" y="280" font-family="Arial" font-size="20" font-weight="bold" fill="#0066cc" text-anchor="middle">16</text>
    <text x="80" y="300" font-family="Arial" font-size="12" fill="#666" text-anchor="middle">Total Tasks</text>
    
    <rect x="140" y="250" width="80" height="60" rx="8" ry="8" fill="rgba(255,255,255,0.5)"/>
    <text x="180" y="280" font-family="Arial" font-size="20" font-weight="bold" fill="#0066cc" text-anchor="middle">12</text>
    <text x="180" y="300" font-family="Arial" font-size="12" fill="#666" text-anchor="middle">Completed</text>
    
    <rect x="240" y="250" width="80" height="60" rx="8" ry="8" fill="rgba(255,255,255,0.5)"/>
    <text x="280" y="280" font-family="Arial" font-size="20" font-weight="bold" fill="#0066cc" text-anchor="middle">4</text>
    <text x="280" y="300" font-family="Arial" font-size="12" fill="#666" text-anchor="middle">Remaining</text>
    
    <!-- Categories Card -->
    <rect x="20" y="350" width="320" height="140" rx="16" ry="16" fill="white" stroke="#eee" stroke-width="1"/>
    <text x="40" y="380" font-family="Arial" font-size="16" font-weight="bold" fill="#333">Category Breakdown</text>
    
    <rect x="40" y="400" width="280" height="30" rx="8" ry="8" fill="rgba(255,255,255,0.5)"/>
    <circle cx="55" cy="415" r="6" fill="#4CAF50"/>
    <text x="70" y="419" font-family="Arial" font-size="14" fill="#333">Health</text>
    <text x="300" y="419" font-family="Arial" font-size="14" fill="#666" text-anchor="end">5</text>
    
    <rect x="40" y="440" width="280" height="30" rx="8" ry="8" fill="rgba(255,255,255,0.5)"/>
    <circle cx="55" cy="455" r="6" fill="#2196F3"/>
    <text x="70" y="459" font-family="Arial" font-size="14" fill="#333">Work</text>
    <text x="300" y="459" font-family="Arial" font-size="14" fill="#666" text-anchor="end">7</text>
    
    <!-- Task Card -->
    <rect x="20" y="510" width="320" height="110" rx="16" ry="16" fill="white" stroke="#eee" stroke-width="1"/>
    <text x="40" y="540" font-family="Arial" font-size="18" font-weight="bold" fill="#333">My Tasks</text>
    <text x="40" y="565" font-family="Arial" font-size="14" fill="#666">Organize and track your daily tasks.</text>
    <rect x="40" y="585" width="120" height="25" rx="8" ry="8" fill="#0066cc"/>
    <text x="100" y="602" font-family="Arial" font-size="12" fill="white" text-anchor="middle">VIEW TASKS</text>
  </svg>