<svg width="360" height="640" xmlns="http://www.w3.org/2000/svg">
    <rect width="360" height="640" fill="#f8f9fa"/>
    <rect x="0" y="0" width="360" height="70" fill="#0066cc"/>
    <text x="20" y="40" font-family="Inter, Arial" font-size="24" fill="white" font-weight="600">Task Cat</text>
    <text x="20" y="60" font-family="Inter, Arial" font-size="14" fill="rgba(255,255,255,0.8)">Stay purr-fectly organized!</text>
    
    <!-- Progress Card -->
    <rect x="20" y="90" width="320" height="120" rx="16" ry="16" fill="white" stroke="#eee" stroke-width="1" filter="drop-shadow(0px 2px 4px rgba(0,0,0,0.1))"/>
    <text x="40" y="120" font-family="Inter, Arial" font-size="16" font-weight="600" fill="#333">Your Progress</text>
    <text x="280" y="120" font-family="Inter, Arial" font-size="16" font-weight="600" fill="#0066cc">75%</text>
    <rect x="40" y="140" width="260" height="16" rx="8" ry="8" fill="#eee"/>
    <rect x="40" y="140" width="195" height="16" rx="8" ry="8" fill="#0066cc"/>
    <text x="160" y="180" font-family="Inter, Arial" font-size="14" fill="#666" text-anchor="middle">Almost there! Keep going!</text>
    
    <!-- Stats Card -->
    <rect x="20" y="230" width="320" height="100" rx="16" ry="16" fill="white" stroke="#eee" stroke-width="1" filter="drop-shadow(0px 2px 4px rgba(0,0,0,0.1))"/>
    <rect x="40" y="250" width="80" height="60" rx="8" ry="8" fill="rgba(0,102,204,0.1)"/>
    <text x="80" y="280" font-family="Inter, Arial" font-size="20" font-weight="600" fill="#0066cc" text-anchor="middle">16</text>
    <text x="80" y="300" font-family="Inter, Arial" font-size="12" fill="#666" text-anchor="middle">Total Tasks</text>
    
    <rect x="140" y="250" width="80" height="60" rx="8" ry="8" fill="rgba(76,175,80,0.1)"/>
    <text x="180" y="280" font-family="Inter, Arial" font-size="20" font-weight="600" fill="#4CAF50" text-anchor="middle">12</text>
    <text x="180" y="300" font-family="Inter, Arial" font-size="12" fill="#666" text-anchor="middle">Completed</text>
    
    <rect x="240" y="250" width="80" height="60" rx="8" ry="8" fill="rgba(229,57,53,0.1)"/>
    <text x="280" y="280" font-family="Inter, Arial" font-size="20" font-weight="600" fill="#E53935" text-anchor="middle">4</text>
    <text x="280" y="300" font-family="Inter, Arial" font-size="12" fill="#666" text-anchor="middle">Remaining</text>
    
    <!-- Categories Card -->
    <rect x="20" y="350" width="320" height="140" rx="16" ry="16" fill="white" stroke="#eee" stroke-width="1" filter="drop-shadow(0px 2px 4px rgba(0,0,0,0.1))"/>
    <text x="40" y="380" font-family="Inter, Arial" font-size="16" font-weight="600" fill="#333">Category Breakdown</text>
    
    <rect x="40" y="400" width="280" height="30" rx="8" ry="8" fill="rgba(76,175,80,0.1)"/>
    <circle cx="55" cy="415" r="6" fill="#4CAF50"/>
    <text x="70" y="419" font-family="Inter, Arial" font-size="14" fill="#333" font-weight="500">Health</text>
    <text x="300" y="419" font-family="Inter, Arial" font-size="14" fill="#666" text-anchor="end">5</text>
    
    <rect x="40" y="440" width="280" height="30" rx="8" ry="8" fill="rgba(33,150,243,0.1)"/>
    <circle cx="55" cy="455" r="6" fill="#2196F3"/>
    <text x="70" y="459" font-family="Inter, Arial" font-size="14" fill="#333" font-weight="500">Work</text>
    <text x="300" y="459" font-family="Inter, Arial" font-size="14" fill="#666" text-anchor="end">7</text>
    
    <!-- Floating Action Button -->
    <circle cx="320" cy="560" r="30" fill="#0066cc" filter="drop-shadow(0px 3px 5px rgba(0,0,0,0.2))"/>
    <rect x="310" y="550" width="20" height="4" fill="white" rx="2" ry="2"/>
    <rect x="310" y="557" width="20" height="4" fill="white" rx="2" ry="2"/>
    <rect x="310" y="564" width="20" height="4" fill="white" rx="2" ry="2"/>
  </svg>