<svg width="360" height="640" xmlns="http://www.w3.org/2000/svg">
    <rect width="360" height="640" fill="#f8f9fa"/>
    <rect x="0" y="0" width="360" height="70" fill="#0066cc"/>
    <text x="20" y="40" font-family="Inter, Arial" font-size="24" font-weight="600" fill="white">My Routines</text>
    <rect x="300" y="25" width="40" height="25" rx="12" ry="12" fill="rgba(255,255,255,0.2)"/>
    <text x="320" y="42" font-family="Inter, Arial" font-size="12" font-weight="500" fill="white" text-anchor="middle">Home</text>
    
    <!-- Filter Section -->
    <rect x="0" y="70" width="360" height="140" fill="white" filter="drop-shadow(0px 1px 3px rgba(0,0,0,0.1))"/>
    <text x="20" y="95" font-family="Inter, Arial" font-size="14" font-weight="600" fill="#333">Categories</text>
    
    <rect x="20" y="105" width="100" height="30" rx="15" ry="15" fill="#f5f5f5" stroke="#0066cc" stroke-width="1.5"/>
    <text x="70" y="125" font-family="Inter, Arial" font-size="12" font-weight="500" fill="#333" text-anchor="middle">All Categories</text>
    
    <rect x="130" y="105" width="70" height="30" rx="15" ry="15" fill="white" stroke="#4CAF50" stroke-width="1"/>
    <circle cx="145" cy="120" r="4" fill="#4CAF50"/>
    <text x="165" y="125" font-family="Inter, Arial" font-size="12" fill="#666">Health</text>
    
    <rect x="210" y="105" width="70" height="30" rx="15" ry="15" fill="white" stroke="#2196F3" stroke-width="1"/>
    <circle cx="225" cy="120" r="4" fill="#2196F3"/>
    <text x="245" y="125" font-family="Inter, Arial" font-size="12" fill="#666">Work</text>
    
    <text x="20" y="165" font-family="Inter, Arial" font-size="14" font-weight="600" fill="#333">Priority</text>
    
    <rect x="20" y="175" width="100" height="30" rx="15" ry="15" fill="#f5f5f5" stroke="#0066cc" stroke-width="1.5"/>
    <text x="70" y="195" font-family="Inter, Arial" font-size="12" font-weight="500" fill="#333" text-anchor="middle">All Priorities</text>
    
    <rect x="130" y="175" width="70" height="30" rx="15" ry="15" fill="white" stroke="#E53935" stroke-width="1"/>
    <circle cx="145" cy="190" r="4" fill="#E53935"/>
    <text x="165" y="195" font-family="Inter, Arial" font-size="12" fill="#666">High</text>
    
    <rect x="210" y="175" width="70" height="30" rx="15" ry="15" fill="white" stroke="#FB8C00" stroke-width="1"/>
    <circle cx="225" cy="190" r="4" fill="#FB8C00"/>
    <text x="245" y="195" font-family="Inter, Arial" font-size="12" fill="#666">Medium</text>
    
    <!-- Task Cards -->
    <rect x="20" y="230" width="320" height="100" rx="16" ry="16" fill="white" stroke="#eee" stroke-width="1" filter="drop-shadow(0px 1px 3px rgba(0,0,0,0.1))"/>
    <circle cx="40" cy="250" r="10" fill="white" stroke="#0066cc" stroke-width="2"/>
    <text x="70" y="255" font-family="Inter, Arial" font-size="16" font-weight="500" fill="#333">Finish project proposal</text>
    <circle cx="310" cy="250" r="10" fill="#ffeeee"/>
    <text x="310" y="254" font-family="Inter, Arial" font-size="14" fill="#f44336" text-anchor="middle">×</text>
    
    <rect x="40" y="280" width="60" height="20" rx="10" ry="10" fill="rgba(229,57,53,0.2)"/>
    <circle cx="50" cy="290" r="4" fill="#E53935"/>
    <text x="70" y="293" font-family="Inter, Arial" font-size="10" font-weight="500" fill="#E53935">High</text>
    
    <rect x="110" y="280" width="70" height="20" rx="10" ry="10" fill="rgba(33,150,243,0.2)"/>
    <text x="145" y="293" font-family="Inter, Arial" font-size="10" font-weight="500" fill="#2196F3">Work</text>
    
    <text x="40" y="315" font-family="Inter, Arial" font-size="12" fill="#666">📅 Due: Apr 20</text>
    <text x="280" y="315" font-family="Inter, Arial" font-size="12" fill="#0066cc">🔄 Daily</text>
    
    <rect x="20" y="350" width="320" height="100" rx="16" ry="16" fill="white" stroke="#eee" stroke-width="1" filter="drop-shadow(0px 1px 3px rgba(0,0,0,0.1))"/>
    <circle cx="40" cy="370" r="10" fill="white" stroke="#0066cc" stroke-width="2"/>
    <text x="70" y="375" font-family="Inter, Arial" font-size="16" font-weight="500" fill="#333">Morning exercise routine</text>
    <circle cx="310" cy="370" r="10" fill="#ffeeee"/>
    <text x="310" y="374" font-family="Inter, Arial" font-size="14" fill="#f44336" text-anchor="middle">×</text>
    
    <rect x="40" y="400" width="70" height="20" rx="10" ry="10" fill="rgba(251,140,0,0.2)"/>
    <circle cx="50" cy="410" r="4" fill="#FB8C00"/>
    <text x="70" y="413" font-family="Inter, Arial" font-size="10" font-weight="500" fill="#FB8C00">Medium</text>
    
    <rect x="120" y="400" width="70" height="20" rx="10" ry="10" fill="rgba(76,175,80,0.2)"/>
    <text x="155" y="413" font-family="Inter, Arial" font-size="10" font-weight="500" fill="#4CAF50">Health</text>
    
    <text x="40" y="435" font-family="Inter, Arial" font-size="12" fill="#666">📅 Due: Apr 17</text>
    <text x="280" y="435" font-family="Inter, Arial" font-size="12" fill="#0066cc">🔄 Weekly</text>
    
    <!-- Floating Action Button -->
    <circle cx="320" cy="560" r="30" fill="#0066cc" filter="drop-shadow(0px 3px 5px rgba(0,0,0,0.2))"/>
    <text x="320" y="568" font-family="Inter, Arial" font-size="24" font-weight="bold" fill="white" text-anchor="middle">+</text>
  </svg>