<svg width="360" height="640" xmlns="http://www.w3.org/2000/svg">
    <rect width="360" height="640" fill="#f8f9fa"/>
    
    <!-- Bottom Sheet Background -->
    <rect x="0" y="0" width="360" height="640" fill="rgba(0,0,0,0.5)"/>
    
    <!-- Task Card in Bottom Sheet -->
    <rect x="0" y="180" width="360" height="460" rx="16" ry="16" fill="white" stroke="#eee" stroke-width="1" filter="drop-shadow(0px -2px 10px rgba(0,0,0,0.2))"/>
    
    <!-- Bottom Sheet Header -->
    <rect x="0" y="180" width="360" height="50" rx="16" ry="16" fill="white"/>
    <line x1="150" y1="195" x2="210" y2="195" stroke="#999" stroke-width="4" stroke-linecap="round"/>
    <text x="50" y="215" font-family="Inter, Arial" font-size="16" font-weight="600" fill="#333">Task Details</text>
    <circle cx="320" cy="205" r="15" fill="#ffeeee"/>
    <text x="320" y="210" font-family="Inter, Arial" font-size="16" fill="#f44336" text-anchor="middle">×</text>
    
    <!-- Task Title -->
    <circle cx="50" cy="255" r="15" fill="white" stroke="#0066cc" stroke-width="2"/>
    <text x="80" y="260" font-family="Inter, Arial" font-size="18" font-weight="500" fill="#333">Complete slide deck</text>
    
    <!-- Card Content -->
    <rect x="50" y="285" width="90" height="30" rx="15" ry="15" fill="rgba(229,57,53,0.2)"/>
    <circle cx="65" cy="300" r="6" fill="#E53935"/>
    <text x="95" y="305" font-family="Inter, Arial" font-size="14" font-weight="500" fill="#E53935">High</text>
    
    <rect x="150" y="285" width="95" height="30" rx="15" ry="15" fill="rgba(33,150,243,0.2)"/>
    <text x="197" y="305" font-family="Inter, Arial" font-size="14" font-weight="500" fill="#2196F3">Work</text>
    
    <!-- Card Footer -->
    <text x="50" y="345" font-family="Inter, Arial" font-size="14" fill="#666">📅 Due: Apr 19, 2025</text>
    <text x="50" y="375" font-family="Inter, Arial" font-size="14" fill="#0066cc">🔄 Weekly</text>
    <text x="50" y="405" font-family="Inter, Arial" font-size="14" fill="#FB8C00">🔔 Reminder set</text>
    
    <!-- Recurrence Settings -->
    <rect x="40" y="435" width="280" height="80" rx="8" ry="8" fill="rgba(0,102,204,0.05)" stroke="#e1e4e8" stroke-width="1"/>
    <text x="60" y="455" font-family="Inter, Arial" font-size="14" font-weight="600" fill="#333">Recurrence Settings</text>
    <text x="60" y="480" font-family="Inter, Arial" font-size="13" fill="#666">Pattern: Weekly (Mon, Wed, Fri)</text>
    <text x="60" y="500" font-family="Inter, Arial" font-size="13" fill="#666">Until: June 30, 2025 (10 occurrences)</text>
    
    <!-- Reminder Settings -->
    <rect x="40" y="530" width="280" height="80" rx="8" ry="8" fill="rgba(251,140,0,0.05)" stroke="#e1e4e8" stroke-width="1"/>
    <text x="60" y="550" font-family="Inter, Arial" font-size="14" font-weight="600" fill="#333">Reminder Settings</text>
    <text x="60" y="575" font-family="Inter, Arial" font-size="13" fill="#666">Time: 9:00 AM on due date</text>
    <text x="60" y="595" font-family="Inter, Arial" font-size="13" fill="#666">Method: Push notification</text>
  </svg>