<svg width="360" height="640" xmlns="http://www.w3.org/2000/svg">
    <rect width="360" height="640" fill="#f8f9fa"/>
    
    <!-- Task Card Close-Up -->
    <rect x="20" y="20" width="320" height="600" rx="16" ry="16" fill="white" stroke="#eee" stroke-width="1"/>
    
    <!-- Card Header -->
    <rect x="20" y="20" width="320" height="60" rx="16" ry="0" fill="white" stroke="#eee" stroke-width="1"/>
    <circle cx="50" cy="50" r="15" fill="white" stroke="#0066cc" stroke-width="2"/>
    <text x="100" y="55" font-family="Arial" font-size="18" fill="#333">Complete slide deck</text>
    <circle cx="310" cy="50" r="15" fill="#ffeeee"/>
    <text x="310" y="55" font-family="Arial" font-size="20" fill="#f44336" text-anchor="middle">×</text>
    
    <!-- Card Content -->
    <rect x="50" y="100" width="90" height="30" rx="15" ry="15" fill="rgba(229,57,53,0.2)"/>
    <circle cx="65" cy="115" r="6" fill="#E53935"/>
    <text x="95" y="120" font-family="Arial" font-size="14" fill="#E53935" font-weight="medium">High</text>
    
    <rect x="150" y="100" width="95" height="30" rx="15" ry="15" fill="rgba(33,150,243,0.2)"/>
    <text x="197" y="120" font-family="Arial" font-size="14" fill="#2196F3" font-weight="medium">Work</text>
    
    <!-- Card Footer -->
    <text x="50" y="170" font-family="Arial" font-size="14" fill="#666">📅 Due: Apr 19, 2025</text>
    <text x="50" y="200" font-family="Arial" font-size="14" fill="#0066cc">🔄 Weekly</text>
    <text x="50" y="230" font-family="Arial" font-size="14" fill="#FB8C00">🔔 Reminder set</text>
    
    <!-- Typography Showcase -->
    <text x="50" y="280" font-family="Arial" font-size="24" fill="#333" font-weight="bold">Title (H1)</text>
    <text x="50" y="320" font-family="Arial" font-size="20" fill="#333" font-weight="bold">Subtitle (H2)</text>
    <text x="50" y="350" font-family="Arial" font-size="16" fill="#333">Body Text (Body1)</text>
    <text x="50" y="380" font-family="Arial" font-size="14" fill="#666">Secondary Text (Body2)</text>
    <text x="50" y="410" font-family="Arial" font-size="12" fill="#666">Caption Text</text>
    
    <!-- Inter Font Family -->
    <text x="50" y="450" font-family="Arial" font-size="18" fill="#333" font-weight="bold">Inter Font Family</text>
    <text x="50" y="480" font-family="Arial" font-size="14" fill="#333">Regular: The quick brown fox</text>
    <text x="50" y="510" font-family="Arial" font-size="14" fill="#333" font-weight="500">Medium: The quick brown fox</text>
    <text x="50" y="540" font-family="Arial" font-size="14" fill="#333" font-weight="600">SemiBold: The quick brown fox</text>
    <text x="50" y="570" font-family="Arial" font-size="14" fill="#333" font-weight="bold">Bold: The quick brown fox</text>
  </svg>